<svg width="25" height="25" viewBox="0 0 25 25" fill="none" xmlns="http://www.w3.org/2000/svg">
<path d="M22.3214 2.67857H19.6429V0.892874C19.6429 0.399745 19.2431 0 18.75 0C18.2569 0 17.8571 0.399745 17.8571 0.892874V2.67857H7.14284V0.892874C7.14284 0.399745 6.74309 0 6.25001 0C5.75694 0 5.35714 0.399745 5.35714 0.892874V2.67857H2.67857C1.19924 2.67857 0 3.8778 0 5.35714V22.3214C0 23.8008 1.19924 25 2.67857 25H22.3214C23.8008 25 25 23.8008 25 22.3214V5.35714C25 3.8778 23.8008 2.67857 22.3214 2.67857ZM23.2143 22.3214C23.2143 22.8146 22.8145 23.2143 22.3214 23.2143H2.67857C2.18544 23.2143 1.7857 22.8146 1.7857 22.3214V10.7143H23.2143V22.3214ZM23.2143 8.92858H1.7857V5.35714C1.7857 4.86401 2.18544 4.46427 2.67857 4.46427H5.35714V6.24996C5.35714 6.74309 5.75688 7.14284 6.25001 7.14284C6.74314 7.14284 7.14289 6.74309 7.14289 6.24996V4.46427H17.8572V6.24996C17.8572 6.74309 18.2569 7.14284 18.75 7.14284C19.2432 7.14284 19.6429 6.74309 19.6429 6.24996V4.46427H22.3215C22.8146 4.46427 23.2144 4.86401 23.2144 5.35714V8.92858H23.2143Z" fill="#242424"/>
<path d="M7.14293 12.5H5.35723C4.8641 12.5 4.46436 12.8997 4.46436 13.3929C4.46436 13.886 4.8641 14.2857 5.35723 14.2857H7.14293C7.63605 14.2857 8.0358 13.886 8.0358 13.3929C8.0358 12.8997 7.63605 12.5 7.14293 12.5Z" fill="#242424"/>
<path d="M13.3929 12.5H11.6072C11.1141 12.5 10.7144 12.8997 10.7144 13.3929C10.7144 13.886 11.1141 14.2857 11.6072 14.2857H13.3929C13.8861 14.2857 14.2858 13.886 14.2858 13.3929C14.2858 12.8997 13.8861 12.5 13.3929 12.5Z" fill="#242424"/>
<path d="M19.6429 12.5H17.8572C17.3641 12.5 16.9644 12.8997 16.9644 13.3929C16.9644 13.886 17.3641 14.2857 17.8572 14.2857H19.6429C20.1361 14.2857 20.5358 13.886 20.5358 13.3929C20.5357 12.8997 20.136 12.5 19.6429 12.5Z" fill="#242424"/>
<path d="M7.14293 16.0713H5.35723C4.8641 16.0713 4.46436 16.471 4.46436 16.9642C4.46436 17.4573 4.8641 17.857 5.35723 17.857H7.14293C7.63605 17.857 8.0358 17.4573 8.0358 16.9642C8.0358 16.471 7.63605 16.0713 7.14293 16.0713Z" fill="#242424"/>
<path d="M13.3929 16.0713H11.6072C11.1141 16.0713 10.7144 16.471 10.7144 16.9642C10.7144 17.4573 11.1141 17.857 11.6072 17.857H13.3929C13.8861 17.857 14.2858 17.4573 14.2858 16.9642C14.2858 16.471 13.8861 16.0713 13.3929 16.0713Z" fill="#242424"/>
<path d="M19.6429 16.0713H17.8572C17.3641 16.0713 16.9644 16.471 16.9644 16.9642C16.9644 17.4573 17.3641 17.857 17.8572 17.857H19.6429C20.1361 17.857 20.5358 17.4573 20.5358 16.9642C20.5357 16.471 20.136 16.0713 19.6429 16.0713Z" fill="#242424"/>
<path d="M7.14293 19.6426H5.35723C4.8641 19.6426 4.46436 20.0423 4.46436 20.5355C4.46436 21.0286 4.8641 21.4283 5.35723 21.4283H7.14293C7.63605 21.4283 8.0358 21.0285 8.0358 20.5354C8.0358 20.0423 7.63605 19.6426 7.14293 19.6426Z" fill="#242424"/>
<path d="M13.3929 19.6426H11.6072C11.1141 19.6426 10.7144 20.0423 10.7144 20.5355C10.7144 21.0286 11.1141 21.4283 11.6072 21.4283H13.3929C13.8861 21.4283 14.2858 21.0286 14.2858 20.5355C14.2858 20.0423 13.8861 19.6426 13.3929 19.6426Z" fill="#242424"/>
<path d="M19.6429 19.6426H17.8572C17.3641 19.6426 16.9644 20.0423 16.9644 20.5355C16.9644 21.0286 17.3641 21.4283 17.8572 21.4283H19.6429C20.1361 21.4283 20.5358 21.0286 20.5358 20.5355C20.5358 20.0423 20.136 19.6426 19.6429 19.6426Z" fill="#242424"/>
</svg>
