<svg width="9" height="9" viewBox="0 0 9 9" fill="none" xmlns="http://www.w3.org/2000/svg">
<path d="M8.03571 5.78571C7.85819 5.78571 7.71428 5.92961 7.71428 6.10714V8.03571C7.71428 8.21324 7.57037 8.35714 7.39285 8.35714H0.964304C0.786777 8.35714 0.642869 8.21324 0.642869 8.03571V6.10714C0.642869 5.92961 0.498961 5.78571 0.321435 5.78571C0.143908 5.78571 0 5.92961 0 6.10714V8.03571C0 8.56827 0.431725 8.99999 0.964285 8.99999H7.39286C7.92542 8.99999 8.35715 8.56827 8.35715 8.03571V6.10714C8.35715 5.92961 8.21324 5.78571 8.03571 5.78571Z" fill="#0874CC"/>
<path d="M6.00372 5.55846C5.87915 5.43817 5.68168 5.43817 5.55713 5.55846L4.49802 6.61692V0.321435C4.49802 0.143908 4.35411 0 4.17659 0C3.99906 0 3.85515 0.143908 3.85515 0.321435V6.61694L2.79668 5.55846C2.66899 5.43514 2.46551 5.43868 2.34219 5.56635C2.22188 5.69092 2.22188 5.88839 2.34219 6.01296L3.94932 7.62009C4.0747 7.74577 4.27821 7.74603 4.40389 7.62068C4.40408 7.62049 4.40427 7.6203 4.40447 7.62009L6.01161 6.01296C6.13495 5.88527 6.13141 5.68179 6.00372 5.55846Z" fill="#0874CC"/>
</svg>
