<svg width="24" height="27" viewBox="0 0 24 27" fill="none" xmlns="http://www.w3.org/2000/svg">
<path fill-rule="evenodd" clip-rule="evenodd" d="M3.42857 11.8125V8.4375C3.42857 3.7776 7.26614 0 12 0C16.7338 0 20.5714 3.7776 20.5714 8.4375V11.8125C22.465 11.8125 24 13.3235 24 15.1875V23.625C24 25.489 22.465 27 20.5714 27H3.42857C1.53502 27 0 25.489 0 23.625V15.1875C0 13.3235 1.53502 11.8125 3.42857 11.8125ZM17.1429 8.4375V11.8125H6.85714V8.4375C6.85714 5.64157 9.15969 3.375 12 3.375C14.8404 3.375 17.1429 5.64157 17.1429 8.4375Z" fill="#2196F3"/>
</svg>
