<svg width="14" height="14" viewBox="0 0 14 14" fill="none" xmlns="http://www.w3.org/2000/svg">
<path d="M1 2.33333C1 1.59695 1.59695 1 2.33333 1H4.51949C4.80645 1 5.06121 1.18362 5.15195 1.45585L6.15047 4.45147C6.2554 4.76621 6.11293 5.11021 5.8162 5.25858L4.31134 6.011C5.04617 7.6408 6.3592 8.95387 7.989 9.68867L8.7414 8.1838C8.8898 7.88707 9.2338 7.7446 9.54853 7.84953L12.5441 8.84807C12.8164 8.9388 13 9.19353 13 9.48053V11.6667C13 12.4031 12.4031 13 11.6667 13H11C5.47715 13 1 8.52287 1 3V2.33333Z" stroke="#4F4F4F" stroke-width="2" stroke-linecap="round" stroke-linejoin="round"/>
</svg>
