<svg width="20" height="17" fill="none" xmlns="http://www.w3.org/2000/svg"><path d="M15.714 6.429C15.714 3.27 12.2.714 7.857.714 3.516.714 0 3.27 0 6.43c0 1.808 1.16 3.426 2.969 4.475-.38.926-.87 1.362-1.306 1.853-.123.145-.268.279-.223.49.033.19.19.324.357.324h.033c.335-.044.659-.1.96-.178a9.37 9.37 0 003.103-1.429c.625.112 1.283.179 1.964.179 4.342 0 7.857-2.556 7.857-5.714zM20 9.286c0-1.864-1.228-3.516-3.114-4.554.168.547.257 1.116.257 1.697 0 1.997-1.027 3.839-2.89 5.2-1.73 1.25-3.996 1.942-6.396 1.942-.324 0-.658-.022-.982-.044C8.27 14.442 10.123 15 12.143 15c.68 0 1.34-.067 1.964-.179a9.37 9.37 0 003.103 1.429c.301.078.625.134.96.179.178.022.346-.123.39-.324.045-.212-.1-.346-.223-.491-.435-.491-.926-.927-1.306-1.853C18.84 12.712 20 11.105 20 9.286z" fill="#4F4F4F"/></svg>