<svg width="9" height="9" fill="none" xmlns="http://www.w3.org/2000/svg"><path d="M8.036 5.786a.321.321 0 00-.322.321v1.929a.321.321 0 01-.321.321H.964a.321.321 0 01-.321-.321V6.107a.321.321 0 10-.643 0v1.929C0 8.568.432 9 .964 9h6.429a.964.964 0 00.964-.964V6.107a.321.321 0 00-.321-.321z" fill="#2196F3"/><path d="M6.004 5.558a.321.321 0 00-.447 0L4.498 6.617V.32a.321.321 0 10-.643 0v6.296L2.797 5.558a.321.321 0 00-.455.455L3.95 7.62a.321.321 0 00.455 0l1.608-1.607a.321.321 0 00-.008-.455z" fill="#2196F3"/></svg>