<svg width="18" height="18" fill="none" xmlns="http://www.w3.org/2000/svg"><path d="M11.429 14.214a.353.353 0 01-.358.357h-5a.353.353 0 01-.357-.357V12.43c0-.201.157-.358.357-.358h1.072V8.5H6.07a.353.353 0 01-.357-.357V6.357c0-.2.157-.357.357-.357h3.572c.2 0 .357.156.357.357v5.714h1.071c.201 0 .358.157.358.358v1.785zM10 4.214a.352.352 0 01-.357.357H7.5a.353.353 0 01-.357-.357V2.43c0-.201.156-.358.357-.358h2.143c.2 0 .357.157.357.358v1.785zm7.143 4.643A8.574 8.574 0 008.57.286 8.574 8.574 0 000 8.857a8.574 8.574 0 008.571 8.572 8.574 8.574 0 008.572-8.572z" fill="#FF5F5F"/></svg>