<svg width="134" height="17" fill="none" xmlns="http://www.w3.org/2000/svg"><path d="M.04 16H1.7v-5.92h2.48c3.24 0 5.36-1.44 5.36-4.48 0-3.14-2.14-4.24-5.44-4.24H.04V16zM1.7 8.72V2.7h2.16c2.68 0 4.04.7 4.04 2.9 0 2.18-1.28 3.12-3.96 3.12H1.7zm12.183 7.54c1.36 0 2.6-.7 3.64-1.58h.06l.14 1.32h1.34V9.3c0-2.6-1.04-4.38-3.66-4.38-1.74 0-3.26.8-4.2 1.42l.66 1.14c.82-.58 1.98-1.2 3.28-1.2 1.86 0 2.32 1.44 2.3 2.9-4.64.52-6.7 1.68-6.7 4.04 0 1.96 1.36 3.04 3.14 3.04zm.44-1.32c-1.1 0-2-.52-2-1.82 0-1.48 1.3-2.4 5.12-2.84v3.16c-1.1.98-2.02 1.5-3.12 1.5zM22.615 16h1.62V8.96c.74-1.88 1.86-2.56 2.78-2.56.42 0 .66.06 1.02.18l.32-1.42c-.36-.18-.68-.24-1.14-.24-1.22 0-2.32.9-3.06 2.26h-.06l-.16-1.98h-1.32V16zm10.858.26c.6 0 1.32-.2 1.92-.4l-.32-1.24c-.36.16-.86.3-1.26.3-1.3 0-1.7-.8-1.7-2.12V6.54h2.98V5.2h-2.98V2.14h-1.36l-.2 3.06-1.7.1v1.24h1.64v6.2c0 2.1.72 3.52 2.98 3.52zm4.103-.26h1.62V8.1c1.12-1.16 1.94-1.76 3.08-1.76 1.5 0 2.14.92 2.14 3V16h1.64V9.14c0-2.76-1.04-4.22-3.3-4.22-1.48 0-2.6.84-3.64 1.86h-.06l-.16-1.58h-1.32V16zm16.39.26c1.5 0 2.6-.5 3.54-1.1l-.6-1.08c-.8.54-1.68.88-2.74.88-2.16 0-3.6-1.6-3.7-4h7.38c.06-.26.08-.62.08-.98 0-3.12-1.56-5.06-4.26-5.06-2.48 0-4.82 2.18-4.82 5.68 0 3.56 2.28 5.66 5.12 5.66zm-3.52-6.5c.22-2.22 1.64-3.52 3.24-3.52 1.76 0 2.8 1.22 2.8 3.52h-6.04zM60.661 16h1.62V8.96c.74-1.88 1.86-2.56 2.78-2.56.42 0 .66.06 1.02.18l.32-1.42c-.36-.18-.68-.24-1.14-.24-1.22 0-2.32.9-3.06 2.26h-.06l-.16-1.98h-1.32V16zm7.578 0h1.6v-2.88l2.1-2.46L75.2 16h1.78L72.9 9.54l3.58-4.34h-1.82l-4.76 5.9h-.06V.08h-1.6V16zm13.084.26c1.36 0 2.6-.7 3.64-1.58h.06l.14 1.32h1.34V9.3c0-2.6-1.04-4.38-3.66-4.38-1.74 0-3.26.8-4.2 1.42l.66 1.14c.82-.58 1.98-1.2 3.28-1.2 1.86 0 2.32 1.44 2.3 2.9-4.64.52-6.7 1.68-6.7 4.04 0 1.96 1.36 3.04 3.14 3.04zm.44-1.32c-1.1 0-2-.52-2-1.82 0-1.48 1.3-2.4 5.12-2.84v3.16c-1.1.98-2.02 1.5-3.12 1.5zm7.312-3.88h5.06V9.78h-5.06v1.28zM97.052 16h1.66V9.68h2.74l3.66 6.32h1.86l-3.78-6.48c2.06-.46 3.4-1.8 3.4-4.1 0-3-2.08-4.06-5.06-4.06h-4.48V16zm1.66-7.68V2.7h2.56c2.36 0 3.66.72 3.66 2.72 0 1.96-1.3 2.9-3.66 2.9h-2.56zM109.59 16h1.66v-4.72l2.62-3.1 4.5 7.82h1.84l-5.28-9.1 4.6-5.54h-1.9l-6.34 7.54h-.04V1.36h-1.66V16zm17.664.26c3.64 0 6.2-2.96 6.2-7.64 0-4.66-2.56-7.52-6.2-7.52-3.62 0-6.18 2.86-6.18 7.52 0 4.68 2.56 7.64 6.18 7.64zm0-1.46c-2.7 0-4.48-2.42-4.48-6.18 0-3.74 1.78-6.06 4.48-6.06 2.72 0 4.5 2.32 4.5 6.06 0 3.76-1.78 6.18-4.5 6.18z" fill="#fff"/></svg>