<svg width="159" height="17" fill="none" xmlns="http://www.w3.org/2000/svg"><path d="M27.264 11.038c0-.342-.13-.606-.39-.793-.255-.191-.704-.355-1.347-.492-.638-.137-1.146-.3-1.524-.492-.374-.192-.652-.42-.834-.684a1.65 1.65 0 01-.267-.943c0-.606.256-1.119.766-1.538.515-.42 1.171-.63 1.969-.63.838 0 1.517.217 2.037.65.524.433.786.987.786 1.661h-1.271c0-.346-.149-.645-.445-.895-.291-.25-.66-.376-1.107-.376-.46 0-.82.1-1.08.3a.948.948 0 00-.39.787c0 .305.12.535.362.69.242.155.677.303 1.306.445.633.14 1.146.31 1.538.505.392.196.681.433.868.711.192.274.287.609.287 1.005 0 .661-.264 1.192-.793 1.593-.528.396-1.214.595-2.057.595-.593 0-1.117-.105-1.573-.315a2.592 2.592 0 01-1.073-.875 2.146 2.146 0 01-.383-1.223h1.265c.023.424.191.76.506 1.011.319.246.738.37 1.258.37.478 0 .861-.096 1.148-.288.292-.196.438-.455.438-.779zm7.478 1.23c-.492.58-1.214.869-2.167.869-.788 0-1.39-.228-1.805-.684-.41-.46-.617-1.14-.622-2.037V5.604h1.265v4.778c0 1.12.456 1.681 1.367 1.681.966 0 1.609-.36 1.928-1.08v-5.38h1.265V13H34.77l-.028-.731zm9.406-2.884c0 1.125-.257 2.032-.772 2.72-.515.689-1.212 1.033-2.092 1.033-.898 0-1.604-.285-2.119-.855v3.562H37.9V5.604h1.156l.061.82c.515-.638 1.23-.957 2.147-.957.888 0 1.59.335 2.105 1.005.52.67.78 1.602.78 2.796v.116zm-1.264-.144c0-.834-.178-1.492-.533-1.975-.356-.483-.843-.725-1.463-.725-.766 0-1.34.34-1.723 1.019v3.534c.378.674.957 1.011 1.736 1.011.606 0 1.087-.239 1.443-.717.36-.483.54-1.199.54-2.147zm9.126.144c0 1.125-.258 2.032-.773 2.72-.515.689-1.212 1.033-2.092 1.033-.897 0-1.604-.285-2.119-.855v3.562h-1.264V5.604h1.155l.061.82c.515-.638 1.231-.957 2.147-.957.889 0 1.59.335 2.105 1.005.52.67.78 1.602.78 2.796v.116zm-1.265-.144c0-.834-.178-1.492-.533-1.975-.356-.483-.843-.725-1.463-.725-.766 0-1.34.34-1.723 1.019v3.534c.379.674.957 1.011 1.737 1.011.606 0 1.087-.239 1.442-.717.36-.483.54-1.199.54-2.147zm2.543-.007c0-.724.141-1.376.424-1.955.287-.578.683-1.025 1.19-1.34.51-.314 1.09-.471 1.742-.471 1.008 0 1.821.348 2.441 1.046.624.697.937 1.624.937 2.782v.089c0 .72-.14 1.367-.417 1.941a3.115 3.115 0 01-1.183 1.333c-.51.32-1.098.479-1.764.479-1.002 0-1.816-.349-2.44-1.046-.62-.697-.93-1.62-.93-2.769v-.089zm1.272.15c0 .821.189 1.48.567 1.976.383.497.893.745 1.531.745.643 0 1.153-.25 1.532-.752.378-.505.567-1.212.567-2.119 0-.81-.194-1.467-.581-1.968-.383-.506-.893-.76-1.532-.76-.624 0-1.127.25-1.51.746-.383.497-.574 1.208-.574 2.133zm10.623-2.645a3.79 3.79 0 00-.623-.048c-.829 0-1.392.354-1.688 1.06V13h-1.265V5.604h1.23l.021.854c.415-.66 1.003-.991 1.764-.991.246 0 .433.032.56.096v1.175zm3.226-2.926v1.792h1.381v.977h-1.38v4.587c0 .296.06.52.184.67.123.146.332.219.629.219.145 0 .346-.028.601-.082V13a3.668 3.668 0 01-.97.137c-.566 0-.992-.171-1.279-.513-.287-.342-.43-.827-.43-1.456V6.581h-1.347v-.977h1.346V3.812h1.265zm13.788 5.756c-.054 1.103-.328 1.974-.82 2.612-.492.638-1.15.957-1.976.957-.852 0-1.399-.383-1.64-1.149-.246.388-.529.677-.848.868-.314.187-.64.28-.977.28-.648 0-1.138-.264-1.47-.792-.333-.529-.456-1.26-.37-2.195.069-.752.24-1.421.513-2.01.278-.592.634-1.057 1.067-1.394.437-.337.895-.506 1.374-.506.369 0 .7.05.991.15.292.096.62.288.984.575l-.355 3.787c-.087 1.053.205 1.58.875 1.58.515 0 .932-.256 1.25-.766.32-.511.493-1.176.52-1.997.087-1.772-.243-3.124-.99-4.053-.744-.93-1.876-1.395-3.398-1.395-.916 0-1.73.228-2.44.684-.712.45-1.272 1.105-1.682 1.962-.41.856-.64 1.845-.69 2.966-.055 1.13.081 2.113.41 2.947.328.83.827 1.463 1.496 1.9.675.442 1.488.663 2.44.663.411 0 .821-.05 1.231-.15.415-.1.76-.23 1.033-.39l.253.786c-.283.178-.659.324-1.128.438-.465.114-.937.17-1.415.17-1.14 0-2.12-.257-2.94-.772-.82-.51-1.435-1.248-1.846-2.215-.405-.961-.58-2.087-.526-3.377.055-1.253.335-2.378.84-3.377.507-1.002 1.193-1.775 2.059-2.317.865-.547 1.843-.82 2.932-.82 1.135 0 2.108.255 2.919.765.811.51 1.415 1.247 1.812 2.208.396.962.567 2.088.512 3.377zm-7.013.581c-.064.648-.005 1.144.177 1.49.187.347.481.52.882.52.274 0 .536-.116.786-.349.255-.232.465-.565.63-.998l.006-.061.314-3.438a1.758 1.758 0 00-.82-.199c-.533 0-.975.271-1.326.814-.346.542-.563 1.283-.65 2.221zm12.243-3.41a3.79 3.79 0 00-.622-.049c-.83 0-1.393.354-1.689 1.06V13h-1.264V5.604h1.23l.02.854c.415-.66 1.003-.991 1.764-.991.246 0 .433.032.56.096v1.175zm3.233 2.836l-.793.827V13h-1.264V2.5h1.264v6.35l.677-.813 2.304-2.433h1.538l-2.878 3.09L94.72 13h-1.484L90.66 9.575zm4.696-.342c0-.724.142-1.376.424-1.955a3.226 3.226 0 011.19-1.34c.51-.314 1.091-.471 1.743-.471 1.007 0 1.821.348 2.44 1.046.625.697.937 1.624.937 2.782v.089c0 .72-.139 1.367-.417 1.941a3.119 3.119 0 01-1.183 1.333c-.51.32-1.098.479-1.763.479-1.003 0-1.817-.349-2.44-1.046-.62-.697-.93-1.62-.93-2.769v-.089zm1.272.15c0 .821.19 1.48.567 1.976.383.497.894.745 1.532.745.642 0 1.153-.25 1.531-.752.378-.505.567-1.212.567-2.119 0-.81-.193-1.467-.581-1.968a1.825 1.825 0 00-1.531-.76c-.624 0-1.128.25-1.51.746-.384.497-.575 1.208-.575 2.133zm9.68-.095h-3.336V8.256h3.336v1.032zm.936-.048c0-1.153.267-2.069.8-2.748.533-.683 1.24-1.025 2.119-1.025.902 0 1.607.319 2.112.957l.062-.82h1.155v7.218c0 .957-.285 1.712-.854 2.263-.565.551-1.326.827-2.284.827a3.8 3.8 0 01-1.565-.342c-.51-.228-.9-.54-1.169-.936l.656-.759c.543.67 1.206 1.005 1.99 1.005.615 0 1.093-.173 1.435-.52.347-.346.52-.834.52-1.462v-.636c-.506.583-1.197.875-2.072.875-.865 0-1.567-.349-2.105-1.046-.533-.697-.8-1.648-.8-2.85zm1.272.144c0 .834.171 1.49.512 1.968.342.474.821.711 1.436.711.797 0 1.383-.362 1.757-1.086V7.6c-.388-.707-.969-1.06-1.743-1.06-.616 0-1.096.24-1.443.718-.346.478-.519 1.187-.519 2.126zm10.465-2.646a3.78 3.78 0 00-.622-.048c-.829 0-1.392.354-1.688 1.06V13h-1.265V5.604h1.231l.02.854c.415-.66 1.003-.991 1.764-.991.246 0 .433.032.56.096v1.175zm.698 2.495c0-.724.141-1.376.424-1.955.287-.578.683-1.025 1.189-1.34.51-.314 1.091-.471 1.743-.471 1.007 0 1.821.348 2.441 1.046.624.697.936 1.624.936 2.782v.089c0 .72-.139 1.367-.417 1.941a3.112 3.112 0 01-1.183 1.333c-.51.32-1.098.479-1.763.479-1.003 0-1.816-.349-2.441-1.046-.619-.697-.929-1.62-.929-2.769v-.089zm1.271.15c0 .821.189 1.48.568 1.976.382.497.893.745 1.531.745.642 0 1.153-.25 1.531-.752.378-.505.567-1.212.567-2.119 0-.81-.193-1.467-.581-1.968-.382-.506-.893-.76-1.531-.76-.624 0-1.128.25-1.511.746-.382.497-.574 1.208-.574 2.133zm11.614 2.886c-.492.578-1.214.868-2.167.868-.788 0-1.39-.228-1.804-.684-.41-.46-.618-1.14-.622-2.037V5.604h1.264v4.778c0 1.12.456 1.681 1.368 1.681.966 0 1.608-.36 1.927-1.08v-5.38h1.265V13h-1.203l-.028-.731zm9.407-2.885c0 1.125-.258 2.032-.773 2.72-.515.689-1.212 1.033-2.092 1.033-.897 0-1.604-.285-2.119-.855v3.562h-1.264V5.604h1.155l.061.82c.515-.638 1.231-.957 2.147-.957.889 0 1.59.335 2.105 1.005.52.67.78 1.602.78 2.796v.116zm-1.265-.144c0-.834-.178-1.492-.533-1.975-.356-.483-.843-.725-1.463-.725-.766 0-1.34.34-1.723 1.019v3.534c.379.674.957 1.011 1.737 1.011.606 0 1.087-.239 1.442-.717.36-.483.54-1.199.54-2.147zm2.905 3.097a.8.8 0 01.192-.547c.132-.146.328-.219.588-.219.259 0 .455.073.588.219a.772.772 0 01.205.547.73.73 0 01-.205.526c-.133.142-.329.212-.588.212-.26 0-.456-.07-.588-.212a.755.755 0 01-.192-.526zm7.24-5.599a3.797 3.797 0 00-.622-.048c-.83 0-1.393.354-1.689 1.06V13h-1.265V5.604h1.231l.02.854c.415-.66 1.003-.991 1.764-.991.246 0 .433.032.561.096v1.175zm5.735 5.53c-.492.58-1.215.869-2.167.869-.788 0-1.39-.228-1.805-.684-.41-.46-.617-1.14-.622-2.037V5.604h1.265v4.778c0 1.12.456 1.681 1.367 1.681.966 0 1.609-.36 1.928-1.08v-5.38h1.264V13h-1.203l-.027-.731z" fill="#242424"/><path d="M1 4.571l7.014 4.51a1.833 1.833 0 001.972 0L17 4.57H1zM2.778 14h12.444c.982 0 1.778-.768 1.778-1.714V3.714C17 2.768 16.204 2 15.222 2H2.778C1.796 2 1 2.768 1 3.714v8.572C1 13.233 1.796 14 2.778 14z" stroke="#4F4F4F" stroke-width="2" stroke-linecap="round" stroke-linejoin="round"/></svg>