<svg width="41" height="40" fill="none" xmlns="http://www.w3.org/2000/svg"><path d="M20.282 39.997c11.045 0 19.999-8.954 19.999-19.998C40.28 8.954 31.327 0 20.282 0 9.237 0 .284 8.954.284 19.998c0 11.045 8.953 19.999 19.998 19.999z" fill="#B9C4E1"/><path d="M20.284 26.783c4.296 0 7.78-4.503 7.78-10.058S24.58 6.667 20.283 6.667s-7.779 4.503-7.779 10.058 3.483 10.058 7.78 10.058zm0 .744c-6.507 0-12.235 1.989-15.58 5.006a19.989 19.989 0 0031.163 0c-3.345-3.017-9.073-5.006-15.583-5.006z" fill="#fff"/><path d="M19.432 19.998h1.738a2.97 2.97 0 012.971 2.971v6.76a2.974 2.974 0 01-2.97 2.974h-1.74a2.97 2.97 0 01-2.97-2.97v-6.76a2.971 2.971 0 012.97-2.974zm-5.852-2.807c.454 1.304.272 2.551-.402 2.78-.673.228-1.59-.618-2.04-1.94-.452-1.321-.276-2.55.4-2.779.677-.228 1.588.633 2.042 1.94zm15.853.849c.453-1.304.273-2.552-.402-2.787-.675-.234-1.59.634-2.043 1.939-.453 1.305-.273 2.553.402 2.787.675.235 1.59-.633 2.043-1.938z" fill="#fff"/><path d="M13.475 17.148c-1.01-1.853-2.051-3.789-1.998-5.889.052-2.1 1.649-4.323 3.745-4.234.364.046.73.06 1.097.04.725-.101 1.263-.694 1.852-1.13a4.941 4.941 0 014.707-.596c.945.386 1.744 1.06 2.668 1.498a6.006 6.006 0 005.481-.222 3.113 3.113 0 01-1.609 1.414 2.95 2.95 0 001.943-.056 3.348 3.348 0 01-1.705 1.489l1.597.108A4.015 4.015 0 0129.4 11l1.253.04a2.948 2.948 0 01-2.062 1.884h.809a2335.81 2335.81 0 01-2.634 3.838 3.313 3.313 0 01-.887.976c-.32.182-.668.308-1.031.37-2.617.585-5.309.76-7.98.52-.926-.084-1.853-.232-2.587-.794-.736-.562-1.112-1.652-.618-2.421M15.27 29.43a22.31 22.31 0 01.395-3.144c.521.596 1.405.67 2.198.7l3.595.149c.139.818.238 1.779-.352 2.362a2.34 2.34 0 01-1.026.507 9.503 9.503 0 01-2.47.346c-.994 0-2.18-.29-2.498-1.236l.306-.265" fill="#fff"/><path d="M25.3 29.43a22.367 22.367 0 00-.393-3.144c-.522.596-1.408.67-2.199.7l-3.585.149c-.139.818-.235 1.779.355 2.362a2.34 2.34 0 001.022.507 9.52 9.52 0 002.47.346c.995 0 2.18-.29 2.499-1.236l-.309-.265" fill="#fff"/></svg>